# xmcd
#
# Track frame offsets: 
#        150
#        21750
#        50077
#        75650
#        93050
#        109525
#        136277
#        164142
#        187550
#
# Disc length: 2753 seconds
#
# Revision: 1
# Processed by: cddbd v1.5.2PL0 Copyright (c) Steve Scherf et al.
# Submitted via: ExactAudioCopy v0.95b4
#
DISCID=660abf09
DTITLE=Yank Rachell - Chicago Style
DYEAR=1979
DGENRE=Piedmont Blues
TTITLE0=Depression Blues
TTITLE1=Roll Me Over Baby
TTITLE2=Check Up on My Baby
TTITLE3=Early in the Morning
TTITLE4=Diving Duck
TTITLE5=Let Me Tangle in Your Vines
TTITLE6=I Don't Believe You Love Me No More
TTITLE7=Going to St. Louis
TTITLE8=Sugar Mama
EXTD=James "Yank" Rachell (1910/1997): vocals, amplified mandolin, aco
EXTD=ustic guitar (track 3]\nPete Crawford: electric guitar\nFloyd Jon
EXTD=es (1917/1989): electric bass guitar\nOdie Payne (1926/1989): dru
EXTD=ms\nRecorded at ACME Studios, Chicago US-IL, 1979-08-16, by Mike 
EXTD=Rasfeld.\nProduced by Robert G. Koester.\nPreviously released as 
EXTD=Delmark LP (1979) and CD (1987).\nReissue produced by Kathryn Lyn
EXTD=ch.\nCD: Delmark DD-649 (1994-01-14), UPC 038153064921.
EXTT0=
EXTT1=
EXTT2=
EXTT3=
EXTT4=
EXTT5=
EXTT6=
EXTT7=
EXTT8=
PLAYORDER=
